 <svg  version="1.0" xmlns="http://www.w3.org/2000/svg"  width="300.000000pt" height="82.000000pt" viewBox="0 0 300.000000 82.000000"  preserveAspectRatio="xMidYMid meet">  <g transform="translate(0.000000,82.000000) scale(0.100000,-0.100000)" fill="#88603a" stroke="none"> <path d="M2700 671 c-8 -5 -32 -16 -53 -25 -24 -10 -35 -21 -31 -28 5 -7 -1 -9 -20 -6 -14 3 -29 1 -32 -4 -3 -4 -10 -6 -15 -3 -5 4 -9 -1 -9 -9 0 -20 -20 -32 -30 -17 -5 9 -10 8 -19 -3 -7 -8 -23 -13 -36 -10 -13 2 -36 -1 -52 -8 -32 -13 -28 -12 -71 -22 -18 -4 -30 -12 -26 -17 3 -5 1 -9 -5 -9 -5 0 -11 5 -13 11 -3 9 -9 9 -25 1 -11 -6 -37 -12 -57 -14 -20 -1 -36 -6 -36 -11 0 -5 -9 -7 -20 -4 -11 3 -39 1 -62 -5 -42 -9 -79 -14 -163 -22 -45 -5 -90 -12 -90 -16 0 -1 -20 -3 -45 -5 -25 -1 -74 -5 -110 -8 -36 -3 -103 -9 -150 -13 -47 -3 -91 -11 -97 -16 -9 -7 -13 -7 -13 2 0 8 -10 10 -32 6 -18 -3 -94 -8 -168 -11 -74 -3 -137 -10 -138 -15 -2 -6 -9 -7 -15 -3 -7 4 -122 8 -257 9 -135 1 -261 5 -280 8 -19 3 -53 8 -75 11 -22 4 -84 20 -138 36 -103 31 -131 31 -100 -3 26 -29 119 -71 188 -84 11 -3 54 -11 95 -19 129 -25 150 -27 164 -15 9 7 16 7 20 1 4 -5 48 -10 99 -11 50 -1 103 -1 117 -2 14 0 35 2 47 5 13 3 23 2 23 -4 0 -5 11 -9 25 -9 14 0 25 5 25 10 0 12 22 9 33 -5 6 -7 10 -6 13 2 4 8 24 10 63 6 44 -4 61 -1 74 11 11 11 17 12 19 4 6 -18 51 -16 65 2 9 10 12 11 13 3 0 -7 5 -13 11 -13 5 0 7 5 3 11 -4 8 0 8 15 0 27 -15 54 -11 63 9 6 13 7 13 7 -1 1 -12 9 -14 34 -11 17 3 35 10 39 16 5 8 8 7 8 -2 0 -8 7 -11 18 -8 9 3 44 8 77 12 33 3 63 11 67 17 5 8 8 9 8 1 0 -6 10 -10 23 -8 28 4 117 12 186 17 38 3 58 9 69 23 10 13 16 15 19 7 6 -15 73 -18 73 -3 0 6 -4 10 -10 10 -5 0 -10 5 -10 10 0 18 22 10 27 -10 5 -18 7 -18 34 -4 16 8 29 10 29 5 0 -5 9 -7 20 -4 11 3 17 10 13 17 -4 8 -3 8 6 0 13 -12 51 -8 51 5 0 4 15 7 33 6 30 0 33 2 30 25 -3 24 -3 24 6 3 12 -27 26 -29 39 -7 5 9 12 15 15 15 19 -3 28 0 23 7 -2 4 0 14 6 22 8 13 9 12 5 -2 -3 -9 1 -19 9 -22 22 -8 56 16 50 37 -2 9 0 15 5 11 5 -3 9 -13 9 -22 0 -13 2 -13 16 4 8 10 12 12 8 4 -7 -12 -5 -13 8 -3 8 7 18 10 21 6 4 -3 9 1 13 10 3 9 12 13 20 10 8 -3 14 0 14 7 0 8 9 11 25 8 15 -3 29 0 33 8 7 12 11 14 33 14 5 0 7 5 4 10 -3 6 0 10 7 10 7 0 19 9 26 20 7 12 17 18 22 15 6 -3 10 -1 10 5 0 6 6 10 13 8 18 -3 57 12 57 23 0 11 -19 11 -40 0z m-1755 -312 c15 0 16 -2 6 -8 -8 -5 -27 -5 -42 -1 -19 6 -29 5 -29 -2 0 -6 -3 -9 -6 -5 -12 12 7 26 29 20 12 -2 31 -5 42 -4z"/> </g> </svg> 