 <svg  version="1.0" xmlns="http://www.w3.org/2000/svg"  width="300.000000pt" height="304.000000pt" viewBox="0 0 300.000000 304.000000"  preserveAspectRatio="xMidYMid meet">  <g transform="translate(0.000000,304.000000) scale(0.100000,-0.100000)" fill="#88603a" stroke="none"> <path d="M1411 2163 c-27 -10 -46 -23 -49 -35 -3 -14 -7 -16 -13 -7 -11 18 -74 -33 -110 -90 -46 -71 -63 -142 -56 -232 l6 -76 -105 53 c-58 29 -126 67 -151 84 -43 29 -63 34 -49 11 4 -5 39 -31 79 -57 39 -27 74 -51 77 -55 9 -12 141 -79 156 -79 7 0 29 -34 49 -76 62 -135 220 -269 449 -382 59 -30 113 -55 120 -56 6 -1 28 -10 49 -19 21 -9 54 -19 75 -22 20 -4 45 -9 55 -12 9 -2 17 1 17 7 0 22 -31 42 -110 71 -102 37 -302 136 -371 184 -104 72 -285 272 -265 293 4 3 10 2 14 -3 9 -13 63 -37 69 -31 3 3 16 1 29 -4 37 -15 242 -15 309 0 77 16 121 39 169 87 96 97 89 231 -16 335 -60 58 -144 112 -123 78 3 -5 1 -10 -4 -10 -6 0 -11 6 -11 13 0 40 -202 61 -289 30z m238 -50 c14 -7 33 -13 41 -13 30 -1 126 -76 158 -124 26 -39 32 -58 32 -100 0 -89 -55 -144 -181 -183 -73 -22 -287 -21 -385 1 -69 16 -71 18 -83 55 -35 119 24 262 135 327 24 14 44 31 44 37 0 6 3 8 6 5 3 -3 17 -2 32 2 41 13 172 9 201 -7z"/> <path d="M1952 1317 c-8 -9 -7 -23 2 -50 17 -50 74 -129 89 -124 6 2 17 -1 22 -7 17 -18 45 -60 45 -68 0 -4 -30 -6 -67 -5 -51 3 -68 7 -68 18 0 16 -36 17 -109 1 -58 -12 -84 -38 -63 -60 16 -15 91 -7 81 9 -3 5 -1 9 5 9 5 0 12 -4 16 -9 3 -6 17 -6 34 -1 16 4 69 6 119 4 71 -2 93 0 103 12 10 12 6 21 -23 52 -48 50 -111 138 -137 190 -23 44 -32 50 -49 29z"/> </g> </svg> 